# xmcd CD database file
#
# Track frame offsets:
#	150
#	27498
#	46031
#	74472
#	93899
#	112409
#	129883
#	150971
#	176603
#	204119
#	233830
#	266160
#	288543
#
# Disc length: 4103 seconds
#
# Revision: 0
# Processed by: cddbd v1.5.2PL0 Copyright (c) Steve Scherf et al.
# Submitted via: CDex 1.70beta2
#
DISCID=af10050d
DTITLE=Taft Jordan - Mood Indigo
DYEAR=1999
DGENRE=Jazz
TTITLE0=Lost In Meditation
TTITLE1=In A Sentimental Mood
TTITLE2=Mood Indigo
TTITLE3=Warm Valley
TTITLE4=Sophisticated Lady
TTITLE5=I Didn't Know About You
TTITLE6=Do Nothin' Till You Hear From Me
TTITLE7=New Carnegie Blues
TTITLE8=Things Ain't What They Used To Be
TTITLE9=Li'l Darlin'
TTITLE10=Willow Weep For Me
TTITLE11=Tenderly
TTITLE12=Rockin' In Rhythm
EXTD=YEAR: 1999
EXTT0=
EXTT1=
EXTT2=
EXTT3=
EXTT4=
EXTT5=
EXTT6=
EXTT7=
EXTT8=
EXTT9=
EXTT10=
EXTT11=
EXTT12=
PLAYORDER=
